<?xml version="1.0" encoding="UTF-8"?>
<svg id="Layer_2" data-name="Layer 2" xmlns="http://www.w3.org/2000/svg" viewBox="0 0 361.42 361.42">
  <defs>
    <style>
      .cls-1 {
        fill: #ff5f05;
      }
    </style>
  </defs>
  <g id="Layer_2-2" data-name="Layer 2">
    <g id="Layer_1-2" data-name="Layer 1-2">
      <path class="cls-1" d="M180.71,0C80.9,0,0,80.9,0,180.71s80.9,180.71,180.71,180.71,180.71-80.9,180.71-180.71S280.51,0,180.71,0ZM240.27,252.69h0c-8.33,0-15.09-6.76-15.09-15.09s6.76-15.09,15.09-15.09h0c8.33,0,15.09,6.76,15.09,15.09s-6.76,15.09-15.09,15.09ZM255.43,202.73c-4.64-2.02-9.77-3.15-15.16-3.15h0c-5.39,0-10.51,1.13-15.16,3.15v-86.75c-59.04,6.94-106.02,53.92-112.96,112.96h91.1c-.65,2.78-1,5.68-1,8.66,0,8.05,2.51,15.5,6.77,21.65H80.96v-15.16c0-87.84,71.47-159.31,159.31-159.31h15.16v117.95Z"/>
    </g>
  </g>
</svg>