<?xml version="1.0" encoding="UTF-8"?>
<svg id="Layer_2" data-name="Layer 2" xmlns="http://www.w3.org/2000/svg" viewBox="0 0 2313.35 361.41">
  <defs>
    <style>
      .cls-1 {
        fill: white;
        <!-- fill: #ff5f05; -->
      }
    </style>
  </defs>
  <g id="Layer_1-2" data-name="Layer 1">
    <g>
      <polygon class="cls-1" points="487.49 273.38 487.49 273.38 487.49 273.38 487.49 273.38"/>
      <path class="cls-1" d="M544.38,109.58v-.07c.5-3.12.76-6.05.76-8.85,0-3.14-.33-6.1-1.09-8.89-.76-2.79-1.97-5.42-3.72-7.69h0c-1.28-1.67-2.83-3.11-4.55-4.29-2.6-1.77-5.55-2.96-8.73-3.71-3.19-.75-6.62-1.08-10.34-1.08h-45.49l-6.03,33.42h42.48l-25.09,140.37v-.02c-.46,2.54-.71,5.02-.71,7.45,0,3.17.43,6.26,1.36,9.16.93,2.91,2.37,5.63,4.26,8.01,2.6,3.3,6.05,5.88,9.95,7.48,3.91,1.62,8.21,2.32,12.79,2.32h50.89l6.03-33.42h-47.93l25.15-140.18Z"/>
      <polygon class="cls-1" points="609.5 273.38 609.5 273.38 609.5 273.38 609.5 273.38"/>
      <path class="cls-1" d="M655.6,170.01v-.08c.5-3.12.76-6.05.76-8.85,0-3.14-.33-6.1-1.09-8.89-.76-2.79-1.97-5.42-3.72-7.69h0c-1.27-1.67-2.83-3.11-4.55-4.29-2.6-1.77-5.55-2.96-8.73-3.71-3.19-.75-6.62-1.08-10.34-1.08h-45.49l-6.03,33.42h42.48l-14.29,79.94h0s0,0,0,0v.02s0-.02,0-.02c-.46,2.54-.71,5.02-.71,7.44,0,3.17.43,6.26,1.36,9.16.93,2.91,2.37,5.63,4.26,8.01,2.6,3.3,6.05,5.88,9.95,7.48,3.91,1.62,8.21,2.32,12.79,2.32h50.89l6.03-33.42h-47.92l14.36-79.75Z"/>
      <path class="cls-1" d="M629.38,118.29c2.43,2.38,5.26,4.28,8.37,5.53,3.11,1.26,6.46,1.86,9.87,1.86,3.47,0,6.87-.59,10.01-1.85,3.15-1.25,6.01-3.18,8.42-5.6,2.37-2.37,4.29-5.13,5.56-8.19,1.28-3.05,1.89-6.36,1.89-9.71,0-3.41-.6-6.76-1.88-9.85-1.27-3.09-3.21-5.89-5.63-8.24h0c-2.42-2.37-5.28-4.24-8.41-5.45-3.13-1.22-6.51-1.8-9.96-1.79-3.39,0-6.72.58-9.82,1.8-3.1,1.22-5.93,3.06-8.36,5.39-2.47,2.34-4.46,5.14-5.77,8.25-1.32,3.1-1.94,6.48-1.93,9.9,0,3.37.63,6.7,1.94,9.76,1.31,3.07,3.27,5.83,5.69,8.19Z"/>
      <polygon class="cls-1" points="629.38 118.29 629.38 118.29 629.37 118.29 629.38 118.29"/>
      <path class="cls-1" d="M846.39,165.69h0c-1.44-5.01-3.57-9.62-6.37-13.73-2.8-4.11-6.29-7.71-10.35-10.72h0c-4.18-3.1-8.98-5.39-14.22-6.87-5.25-1.49-10.94-2.19-17.05-2.19-5.76,0-11.2.56-16.3,1.73-5.1,1.17-9.86,2.94-14.2,5.35-3.97,2.2-7.58,4.67-10.83,7.41-1.04-1.98-2.41-3.79-4.04-5.31h0c-2.24-2.11-4.96-3.64-7.88-4.59-2.92-.95-6.04-1.35-9.32-1.36h-27.96l-6.03,33.42h20.83l-20.27,114.35h36.88l13.96-79.1c1.16-6.29,2.92-11.74,5.22-16.4,2.3-4.66,5.13-8.53,8.5-11.76,3.43-3.28,7.02-5.61,10.85-7.17,3.83-1.55,7.93-2.35,12.5-2.35,4.8,0,8.48.81,11.21,2.12,1.37.66,2.53,1.43,3.55,2.36,1.02.93,1.91,2.01,2.71,3.33,1.2,2,2.11,4.16,2.73,6.57.62,2.41.95,5.07.95,8.03,0,2.6-.26,5.43-.8,8.47l-15.21,85.9h36.88l15.04-85.62h0c.93-4.94,1.41-9.77,1.41-14.48,0-6.02-.79-11.85-2.39-17.4Z"/>
      <path class="cls-1" d="M988.55,149.57c-3.48-3.64-7.52-6.79-12.04-9.43h0c-4.67-2.73-9.88-4.73-15.54-6.04-5.66-1.31-11.77-1.93-18.33-1.93-7.91,0-15.47.92-22.64,2.79-7.16,1.87-13.92,4.69-20.2,8.45-6.21,3.72-11.8,8.13-16.71,13.21-4.91,5.08-9.13,10.83-12.65,17.18-7.08,12.76-10.6,27.07-10.59,42.5,0,6.99.63,13.57,1.94,19.75,1.3,6.18,3.28,11.95,5.96,17.25,2.65,5.25,5.87,9.97,9.66,14.09,3.79,4.12,8.14,7.64,13,10.5,4.85,2.86,10.11,5,15.69,6.42,5.58,1.41,11.48,2.1,17.67,2.1,9.17,0,17.56-1.07,25.13-3.33,7.56-2.25,14.31-5.71,20.03-10.39,5.46-4.46,10.23-9.66,14.28-15.54,4.05-5.87,7.37-12.42,9.98-19.58l3.43-9.4h-36.86l-1.88,4.06c-1.47,3.16-3.2,5.89-5.22,8.25-2.01,2.36-4.3,4.37-6.94,6.08-2.54,1.64-5.39,2.9-8.66,3.76-3.27.86-6.97,1.32-11.13,1.32-4.4,0-8.19-.76-11.59-2.21-3.4-1.45-6.46-3.6-9.33-6.64h0c-2.67-2.86-4.75-6.42-6.22-11.02-.96-3.01-1.63-6.47-1.98-10.37h102.14l1.42-5.13c.98-3.54,1.83-7.54,2.59-12.04h0c.76-4.61,1.17-8.84,1.17-12.75,0-10.68-2.25-20.67-6.84-29.62-2.32-4.54-5.24-8.67-8.73-12.31ZM902.72,188.27c.63-1.16,1.3-2.3,2.02-3.38,2.47-3.71,5.46-7.02,9.04-9.97h0c3.42-2.82,7.23-4.91,11.58-6.34,4.35-1.43,9.27-2.18,14.85-2.18,4.81,0,8.93.6,12.39,1.7,3.46,1.1,6.28,2.66,8.68,4.71,2.34,2.02,3.99,4.29,5.16,7.13.96,2.33,1.57,5.09,1.76,8.34h-65.48Z"/>
      <polygon class="cls-1" points="1074.65 254.61 1074.65 254.61 1074.65 254.61 1074.65 254.61"/>
      <path class="cls-1" d="M1193.18,75l-12.2,69.2c-1.51-1.34-3.12-2.63-4.85-3.86-3.95-2.8-8.44-4.86-13.32-6.2-4.89-1.34-10.16-1.97-15.81-1.97-8.45,0-16.37.99-23.71,3.02-7.34,2.03-14.1,5.12-20.15,9.26h0c-5.9,4.03-11.13,8.73-15.63,14.08-4.51,5.35-8.28,11.33-11.32,17.89-6.01,12.98-9.01,27-9.01,41.77,0,13.91,2.37,26.12,7.47,36.41,2.49,5.03,5.46,9.55,8.93,13.51,3.47,3.96,7.44,7.35,11.85,10.09h0c4.37,2.73,9.06,4.79,14,6.16,4.94,1.37,10.11,2.04,15.46,2.04,5.86,0,11.33-.58,16.42-1.81,5.08-1.23,9.76-3.12,13.95-5.7,3.59-2.2,6.87-4.8,9.85-7.73.64,1.53,1.46,2.98,2.47,4.3,1.02,1.34,2.23,2.53,3.58,3.53,2.03,1.51,4.34,2.56,6.77,3.22,2.43.66,4.98.94,7.64.94h28.5l6.03-33.42h-20.83l30.77-174.76h-36.87ZM1166.14,225.26c-3.21,7.82-7.74,13.92-13.79,18.74h0c-2.86,2.27-5.98,3.94-9.53,5.09-3.54,1.14-7.52,1.75-12.01,1.75-4.2,0-7.68-.75-10.7-2.11-3.02-1.37-5.63-3.37-8.04-6.28-2.32-2.81-4.16-6.32-5.44-10.79-1.28-4.46-1.99-9.85-1.99-16.17,0-8.4,1.68-16.22,5.04-23.68,1.65-3.66,3.66-6.91,6.03-9.82,2.37-2.91,5.1-5.47,8.26-7.73,3.01-2.15,6.29-3.75,9.96-4.85,3.67-1.09,7.73-1.67,12.27-1.67,4.08,0,7.48.67,10.38,1.88,2.9,1.22,5.35,2.97,7.59,5.48,2.09,2.35,3.78,5.43,4.99,9.53,1.2,4.09,1.88,9.17,1.87,15.22,0,9.04-1.63,17.44-4.88,25.4Z"/>
      <path class="cls-1" d="M1311.82,137.64c-4.1,1.84-7.81,4.44-11.01,7.66-.53-.88-1.11-1.73-1.77-2.52-2.1-2.54-4.89-4.49-7.95-5.68-3.07-1.2-6.37-1.69-9.83-1.69h-42.8l-6.03,33.42h34.39l-20.35,114.35h36.87l15.85-88.76c.77-4.01,2.02-7.42,3.68-10.34,1.67-2.92,3.76-5.38,6.38-7.5,2.71-2.19,5.51-3.76,8.48-4.81,2.97-1.05,6.14-1.59,9.64-1.59h37.95l6.83-38h-32.91c-9.99,0-19.2,1.77-27.42,5.47Z"/>
      <path class="cls-1" d="M1437.45,118.29h0s0,0,0,0c2.43,2.38,5.26,4.28,8.37,5.53,3.11,1.26,6.46,1.86,9.87,1.86,3.47,0,6.87-.59,10.01-1.85,3.15-1.25,6.01-3.18,8.42-5.6,2.37-2.37,4.29-5.13,5.56-8.19,1.28-3.05,1.89-6.36,1.89-9.71,0-3.41-.6-6.76-1.88-9.85-1.27-3.09-3.21-5.89-5.63-8.24h0c-2.42-2.37-5.28-4.24-8.41-5.45-3.13-1.22-6.51-1.8-9.96-1.79-3.39,0-6.72.58-9.82,1.8-3.1,1.22-5.93,3.06-8.36,5.39-2.47,2.34-4.46,5.14-5.77,8.25-1.32,3.1-1.94,6.48-1.93,9.9,0,3.37.63,6.7,1.94,9.76,1.31,3.07,3.27,5.83,5.69,8.19Z"/>
      <path class="cls-1" d="M1463.67,170v-.08c.5-3.12.76-6.06.76-8.85,0-3.14-.33-6.1-1.09-8.89-.76-2.79-1.97-5.42-3.72-7.69h0c-1.28-1.67-2.83-3.11-4.55-4.29-2.6-1.77-5.55-2.96-8.73-3.71-3.19-.75-6.62-1.08-10.34-1.08h-45.5l-6.03,33.42h42.48l-14.3,79.96v-.02c-.46,2.54-.71,5.02-.71,7.45,0,3.17.43,6.26,1.36,9.16.93,2.91,2.37,5.63,4.26,8.01,2.6,3.3,6.05,5.88,9.95,7.48,3.91,1.62,8.21,2.32,12.79,2.32h50.89l6.03-33.42h-47.93l14.36-79.76Z"/>
      <polygon class="cls-1" points="1417.57 273.38 1417.57 273.38 1417.57 273.38 1417.57 273.38"/>
      <path class="cls-1" d="M1601.77,161.81l-.02.17c-.29,2.19-.79,4.02-1.41,5.52-.73,1.75-1.83,3.9-3.32,6.37l-36.02,59.46-24.24-97.92h-39.36l38.73,147.77h35.99l54.62-87.95c3.43-5.17,6.09-10.21,7.93-15.21,1.8-4.91,3.23-10.55,4.37-16.97v.03s4.99-27.66,4.99-27.66h-37.4l-4.86,26.4Z"/>
      <path class="cls-1" d="M1772.92,149.57c-3.48-3.64-7.52-6.79-12.04-9.43h0c-4.67-2.73-9.88-4.73-15.54-6.04-5.66-1.31-11.77-1.93-18.33-1.93-7.91,0-15.47.92-22.64,2.79-7.16,1.87-13.92,4.69-20.2,8.45-6.21,3.72-11.8,8.13-16.71,13.21-4.91,5.08-9.13,10.83-12.65,17.18-7.08,12.76-10.6,27.07-10.59,42.5,0,6.99.63,13.57,1.94,19.75,1.3,6.18,3.28,11.95,5.96,17.25h0c2.65,5.25,5.87,9.97,9.66,14.09,3.79,4.12,8.15,7.64,13,10.5,4.85,2.86,10.11,5,15.69,6.42,5.58,1.41,11.48,2.1,17.67,2.1,9.17,0,17.56-1.07,25.13-3.33,7.56-2.25,14.31-5.71,20.03-10.39,5.46-4.46,10.23-9.66,14.28-15.54,4.05-5.87,7.37-12.42,9.98-19.58l3.43-9.4h-36.86l-1.88,4.06c-1.47,3.16-3.2,5.89-5.22,8.25-2.01,2.36-4.3,4.37-6.94,6.08-2.54,1.64-5.39,2.9-8.66,3.76-3.27.86-6.97,1.32-11.13,1.32-4.4,0-8.19-.76-11.59-2.21-3.4-1.45-6.46-3.6-9.33-6.64h0c-2.67-2.86-4.75-6.42-6.22-11.02-.96-3.01-1.63-6.47-1.98-10.37h102.14l1.42-5.13c.98-3.54,1.83-7.54,2.59-12.04h0c.76-4.61,1.17-8.84,1.17-12.75,0-10.68-2.25-20.67-6.84-29.62-2.32-4.54-5.24-8.67-8.73-12.31ZM1687.08,188.27c.63-1.16,1.3-2.3,2.02-3.38,2.47-3.71,5.46-7.02,9.04-9.97,3.42-2.82,7.23-4.91,11.58-6.34,4.35-1.43,9.27-2.18,14.85-2.18,4.81,0,8.93.6,12.39,1.7,3.46,1.1,6.28,2.66,8.68,4.71h0c2.34,2.01,3.99,4.29,5.16,7.13.96,2.33,1.57,5.09,1.76,8.34h-65.48Z"/>
      <path class="cls-1" d="M1930.21,168.83h53.73l5.57-33.42h-53.35l5.93-34.25h-30l-8.95,25.54-.03.1c-.55,1.73-1.21,3.09-1.92,4.15-.53.8-1.09,1.43-1.69,1.96-.9.79-1.88,1.37-3.17,1.8-1.28.43-2.89.7-4.89.7h-26.08l-6.03,33.42h34.02l-11.51,65.2v.04c-.6,3.68-.91,7.21-.91,10.6,0,5.01.68,9.73,2.16,14.07,1.47,4.34,3.77,8.3,6.82,11.63,3.92,4.32,8.83,7.61,14.38,9.72,5.56,2.11,11.74,3.09,18.44,3.09h40.62l6.35-34.5h-38.61c-3.55,0-6.32-.39-8.2-.97-.94-.29-1.66-.61-2.18-.93-.53-.32-.87-.61-1.12-.89h0c-.45-.52-.8-1.1-1.1-1.99-.29-.89-.5-2.11-.5-3.71,0-1.12.1-2.42.33-3.88l11.91-67.48Z"/>
      <path class="cls-1" d="M2119.38,249.76l20.26-114.35h-37.19l-1.47,8.7c-1.48-1.31-3.05-2.57-4.75-3.77-3.95-2.8-8.44-4.86-13.32-6.2-4.89-1.34-10.16-1.97-15.81-1.97-8.45,0-16.37.99-23.71,3.02-7.34,2.03-14.1,5.12-20.15,9.26h0c-5.9,4.03-11.13,8.73-15.63,14.08-4.51,5.35-8.28,11.33-11.32,17.89-6.01,12.98-9.01,27-9.01,41.77,0,13.91,2.37,26.12,7.47,36.42h0c2.49,5.03,5.46,9.55,8.93,13.51,3.47,3.96,7.44,7.35,11.85,10.09h0c4.37,2.73,9.06,4.79,14,6.16,4.94,1.37,10.11,2.04,15.46,2.04,5.86,0,11.33-.58,16.42-1.81,5.08-1.23,9.76-3.12,13.95-5.7,3.59-2.2,6.87-4.8,9.85-7.73.64,1.53,1.46,2.98,2.47,4.3,1.02,1.34,2.23,2.53,3.58,3.53,2.03,1.51,4.34,2.56,6.77,3.22,2.43.66,4.98.94,7.64.94h28.5l6.03-33.42h-20.83ZM2086.25,225.26c-3.21,7.82-7.74,13.92-13.78,18.74h0c-2.86,2.27-5.98,3.94-9.53,5.09-3.54,1.14-7.52,1.75-12.01,1.75-4.2,0-7.68-.75-10.7-2.11-3.02-1.37-5.63-3.37-8.04-6.28-2.32-2.81-4.16-6.32-5.44-10.79-1.28-4.46-1.99-9.85-1.99-16.17,0-8.4,1.68-16.22,5.04-23.68,1.65-3.66,3.66-6.91,6.03-9.82,2.37-2.91,5.1-5.47,8.26-7.73,3.01-2.15,6.29-3.75,9.95-4.85,3.67-1.09,7.73-1.67,12.27-1.67,4.08,0,7.48.67,10.38,1.88,2.9,1.22,5.35,2.97,7.59,5.48,2.09,2.35,3.78,5.43,4.99,9.53,1.2,4.09,1.88,9.17,1.88,15.22,0,9.04-1.63,17.44-4.88,25.4Z"/>
      <path class="cls-1" d="M2267.88,249.65c-.32-.09-.41-.15-.6-.3-.17-.15-.45-.45-.78-1.11l-.02-.05-19.14-36.83,66.01-75.96h-45.77l-40.73,46.55-15.99-29.91h0c-1.36-2.6-2.97-4.97-4.85-7.05-2.84-3.16-6.34-5.64-10.24-7.24-3.91-1.61-8.18-2.35-12.65-2.35h-24.46l-6.03,33.42h25.64c.39,0,.64.05.8.09.24.07.3.11.49.26.17.15.47.48.82,1.18l.06.11,20.13,36.86-65.02,75.85h45.72l39.08-46.55,15.67,29.89.03.05c1.38,2.55,2.96,4.88,4.76,6.94,1.8,2.06,3.83,3.85,6.08,5.31,2.39,1.55,5.06,2.65,7.89,3.35,2.83.7,5.83,1.01,9,1.01h25.73l6.5-33.42h-27.1c-.46,0-.78-.05-.99-.11Z"/>
      <path class="cls-1" d="M180.71,0C80.9,0,0,80.9,0,180.71s80.9,180.71,180.71,180.71,180.71-80.9,180.71-180.71S280.51,0,180.71,0ZM240.27,252.69h0c-8.33,0-15.09-6.76-15.09-15.09s6.76-15.09,15.09-15.09h0c8.33,0,15.09,6.76,15.09,15.09s-6.76,15.09-15.09,15.09ZM255.43,202.73c-4.64-2.02-9.77-3.15-15.16-3.15h0c-5.39,0-10.51,1.13-15.16,3.15v-86.75c-59.04,6.94-106.02,53.92-112.96,112.96h91.1c-.65,2.78-1,5.68-1,8.66,0,8.05,2.51,15.5,6.77,21.65H80.96v-15.16c0-87.84,71.47-159.31,159.31-159.31h15.16v117.95Z"/>
    </g>
  </g>
</svg>