<?xml version="1.0" encoding="UTF-8"?>
<svg id="Layer_2" data-name="Layer 2" xmlns="http://www.w3.org/2000/svg" viewBox="0 0 1529.95 477.17">
  <defs>
    <style>
      .cls-1 {
        fill: #ff5f05;
      }
    </style>
  </defs>
  <g id="Layer_2-2" data-name="Layer 2">
    <g>
      <g>
        <path class="cls-1" d="M820.68,287.79h-57.19c-21.49,0-38.91-15.25-38.91-34.07V108.46c0-18.82-17.42-34.07-38.91-34.07h-56.04c-21.49,0-38.91,15.25-38.91,34.07h0v260.24c0,18.82,17.42,34.07,38.91,34.07h191.05c21.49,0,38.91-15.25,38.91-34.07v-46.84h0c0-18.82-17.42-34.07-38.91-34.07Z"/>
        <polygon class="cls-1" points="1160.48 370.79 1160.48 370.79 1160.48 370.78 1160.48 370.78 1160.48 370.79 1160.48 370.79"/>
        <path class="cls-1" d="M1185.17,137.04c-3.01-5.72-6.57-11.2-10.69-16.35-4.12-5.15-8.81-9.95-13.99-14.31h0c-6.87-5.78-14.59-10.76-22.86-14.88-6.21-3.09-12.73-5.71-19.48-7.89-10.13-3.27-20.78-5.56-31.86-7.05-11.09-1.49-22.64-2.17-34.68-2.17h-107.83c-21.49,0-38.91,15.25-38.91,34.07h0v260.24h0c0,18.82,17.42,34.07,38.91,34.07h107.83c10.71,0,21.02-.54,30.96-1.7,14.91-1.75,29.06-4.89,42.25-9.84,6.59-2.47,12.92-5.4,18.91-8.81,5.98-3.41,11.61-7.3,16.76-11.63,0,0,0,0,0,0,0,0,0,0,0,0,6.91-5.81,12.93-12.42,17.93-19.56,3.75-5.36,6.94-11.02,9.59-16.89,3.98-8.81,6.76-18.08,8.56-27.72,1.8-9.64,2.62-19.67,2.63-30.1v-75.84c0-9.28-.65-18.22-2.06-26.87-2.11-12.96-5.94-25.3-11.96-36.74ZM1076.83,250.46c0,3.27-.14,6.41-.44,9.43-.3,3.02-.77,5.93-1.44,8.68-.45,1.84-.98,3.61-1.62,5.29-.84,2.24-1.86,4.31-3.02,6.13-.87,1.36-1.82,2.58-2.83,3.64-1.01,1.07-2.08,1.99-3.19,2.76-2.22,1.55-4.61,2.54-7.12,3.08-1.68.36-3.42.53-5.22.53h-18.18c-3.62,0-6.56-4.78-6.56-10.67h0v-81.53c0-5.89,2.94-10.67,6.56-10.67h18.18c2.03,0,3.98.21,5.85.68,1.87.47,3.66,1.18,5.37,2.21,1.14.68,2.24,1.5,3.28,2.47,1.39,1.29,2.7,2.85,3.85,4.66h0c.87,1.37,1.66,2.87,2.36,4.49.7,1.61,1.3,3.33,1.8,5.12,1.02,3.59,1.66,7.45,2.02,11.51.24,2.71.35,5.51.35,8.42v23.76Z"/>
        <polygon class="cls-1" points="1160.48 370.79 1160.48 370.79 1160.48 370.78 1160.48 370.79 1160.48 370.79"/>
        <path class="cls-1" d="M1491.04,74.39h-213.97c-21.49,0-38.91,15.25-38.91,34.07h0v46.84h0c0,18.82,17.42,34.07,38.91,34.07h1.15c21.49,0,38.91,15.25,38.91,34.07v145.26c0,18.82,17.42,34.07,38.91,34.07h56.04c21.49,0,38.91-15.25,38.91-34.07v-145.26c0-18.82,17.42-34.07,38.91-34.07h1.15c21.49,0,38.91-15.25,38.91-34.07v-46.84h0c0-18.82-17.42-34.07-38.91-34.07Z"/>
      </g>
      <path class="cls-1" d="M441.38,152.17l-116.38-116.38c-47.72-47.72-125.1-47.72-172.82,0l-116.38,116.38c-47.72,47.72-47.72,125.1,0,172.82l116.38,116.38c47.72,47.72,125.1,47.72,172.82,0l116.38-116.38c47.72-47.72,47.72-125.1,0-172.82ZM152.43,263.21h0c-2.17,1.69-4.58,2.95-7.09,3.78-2.51.84-5.12,1.25-7.73,1.25-2.61,0-5.22-.42-7.73-1.25-2.51-.84-4.92-2.1-7.09-3.79-3.12-2.42-5.51-5.45-7.09-8.76-1.58-3.31-2.37-6.9-2.37-10.48,0-3.58.79-7.17,2.37-10.48,1.58-3.31,3.97-6.35,7.09-8.76,2.17-1.69,4.58-2.95,7.09-3.78,2.51-.84,5.12-1.25,7.73-1.25,2.61,0,5.22.41,7.73,1.25,2.51.84,4.92,2.1,7.09,3.78,3.12,2.42,5.51,5.45,7.09,8.76,1.59,3.31,2.37,6.9,2.37,10.49,0,3.58-.79,7.17-2.37,10.49-1.58,3.31-3.97,6.35-7.09,8.76ZM314.65,317.75c-10.14,25.01-25.3,48.47-45.42,68.8l-.03.04-.77.77c-2.29,2.29-5,4.06-7.87,5.22-2.87,1.16-5.9,1.74-8.93,1.74-3.03,0-6.06-.58-8.93-1.74-2.87-1.16-5.58-2.93-7.87-5.22l-71.27-71.27h0c-1.92-1.92-3.4-4.2-4.37-6.61-.97-2.41-1.45-4.94-1.45-7.46,0-2.53.48-5.07,1.46-7.48.97-2.41,2.46-4.69,4.4-6.62l9.01-8.97,8.94-8.99c1.92-1.93,4.21-3.42,6.62-4.4,2.41-.98,4.95-1.46,7.48-1.46,2.52,0,5.05.48,7.46,1.45,2.4.97,4.68,2.45,6.61,4.37l39.12,39.12c5.85-9.67,10.41-19.91,13.64-30.47,3.93-12.82,5.91-26.11,5.91-39.39,0-13.36-1.89-26.71-5.68-39.58-3.23-10.95-7.85-21.54-13.87-31.52l-47.99,47.99c-2.09,2.1-4.58,3.72-7.21,4.78-2.63,1.07-5.41,1.59-8.18,1.59-2.77,0-5.55-.53-8.18-1.59-2.63-1.06-5.11-2.68-7.21-4.78l-15.37-15.37c-2.1-2.09-3.72-4.58-4.78-7.21-1.07-2.63-1.59-5.41-1.59-8.18,0-2.77.53-5.55,1.59-8.18,1.06-2.63,2.68-5.11,4.78-7.21l80.14-80.14c2.29-2.29,5-4.06,7.87-5.22,2.87-1.16,5.9-1.74,8.93-1.74,3.03,0,6.06.58,8.93,1.74,2.59,1.05,5.05,2.6,7.19,4.58l.2.16.48.48c20.51,20.51,35.94,44.27,46.22,69.61,10.27,25.34,15.41,52.25,15.41,79.16,0,26.91-5.13,53.82-15.41,79.16Z"/>
    </g>
  </g>
</svg>